<mxfile host="app.diagrams.net" modified="2023-04-27T11:07:54.589Z" agent="Mozilla/5.0 (Windows NT 10.0; Win64; x64) AppleWebKit/537.36 (KHTML, like Gecko) Chrome/112.0.0.0 Safari/537.36" version="21.2.3" etag="NTSeOOzs5N3SNtJ1fqA_" type="github">
  <diagram name="페이지-1" id="Ha0rkRNCUTeKWdKy3Gtl">
    <mxGraphModel>
      <root>
        <mxCell id="0" />
        <mxCell id="1" parent="0" />
      </root>
    </mxGraphModel>
  </diagram>
</mxfile>
